<?xml version="1.0" encoding="UTF-8" standalone="no"?>
<svg width="123px" height="58px" viewBox="0 0 123 58" version="1.1" xmlns="http://www.w3.org/2000/svg" xmlns:xlink="http://www.w3.org/1999/xlink">
    <!-- Generator: Sketch 39.1 (31720) - http://www.bohemiancoding.com/sketch -->
    <title>logotype</title>
    <desc>Created with Sketch.</desc>
    <defs></defs>
    <g id="Visual-design" stroke="none" stroke-width="1" fill="none" fill-rule="evenodd">
        <g id="Homepage-hd2i" transform="translate(-180.000000, -79.000000)">
            <g id="HERO" transform="translate(0.000000, 79.000000)">
                <g id="logotype" transform="translate(180.000000, 0.000000)">
                    <path d="M83.258458,33.419366 C82.7755427,41.8497777 81.26349,43.780648 78.6857772,46.4971771 C75.5139566,49.8378505 70.9964661,51.5081872 65.1381753,51.5081872 L56.9294259,51.5081872 L56.9294259,14.0262537 L65.1381753,14.0262537 C69.878862,14.0262537 74.2510721,15.13413 76.7119114,17.2995617 C79.1727506,19.465805 81.1385002,21.1986373 81.1385002,21.1986373 L86.5788054,16.0707523 C86.5788054,16.0707523 84.5830258,13.9061323 82.1595212,12.1879093 C77.6347261,8.96411079 71.9655433,7.34328358 65.1381753,7.34328358 L48.6492537,7.34328358 L48.6492537,57.8283582 L65.1381753,57.8283582 C73.2738787,57.8283582 79.7757861,55.5890681 84.6422743,51.1096764 C88.8343042,47.2511824 91.2099231,43.7863294 91.7910448,33.419366 L83.258458,33.419366 L83.258458,33.419366 Z" id="D" fill="#2B2B2B"></path>
                    <polygon id="H" fill="#2B2B2B" points="31.881365 7.07598806 40.1237602 7.07598806 40.1237602 57.8286846 31.881365 57.8286846 31.881365 35.4096398 8.24142591 35.4096398 8.24142591 57.8286846 -0.000161552239 57.8286846 -0.000161552239 7.07598806 8.24142591 7.07598806 8.24142591 28.9834507 31.881365 28.9834507"></polygon>
                    <path d="M113.124169,57.8283582 L121.784513,57.8283582 L121.784513,17.7613774 L113.124169,17.7613774 L113.124169,57.8283582 Z M123,7.14461055 C123,8.64771138 122.468649,9.90869111 121.405098,10.9259248 C120.341547,11.9439709 119.036936,12.4525877 117.492962,12.4525877 C115.94729,12.4525877 114.643528,11.9439709 113.580826,10.9259248 C112.516426,9.90869111 111.985075,8.64771138 111.985075,7.14461055 C111.985075,5.6423222 112.516426,4.38134247 113.580826,3.36329634 C114.643528,2.34606269 115.94729,1.8358209 117.492962,1.8358209 C119.036936,1.8358209 120.341547,2.34606269 121.405098,3.36329634 C122.468649,4.38134247 123,5.6423222 123,7.14461055 L123,7.14461055 Z" id="i" fill="#2B2B2B"></path>
                    <path d="M84.4477612,28.4552239 L84.4477612,25.1885587 C85.1091128,24.6115179 86.0742627,23.7855575 87.3432107,22.7090612 C88.6129733,21.6333731 89.5846389,20.8001391 90.2590221,20.2101674 C90.9325908,19.6193875 91.7723119,18.8588898 92.7773709,17.9270577 C93.7816154,16.9960339 94.56188,16.1951271 95.1173502,15.5267619 C95.6728205,14.8567804 96.2405078,14.1035562 96.8228556,13.2630486 C97.9069184,11.7420531 98.449357,10.2202494 98.449357,8.69763752 C98.449357,5.44471139 96.8888278,3.81784423 93.7685839,3.81784423 C92.2088691,3.81784423 90.9985631,4.30921792 90.1401091,5.29358165 C89.2800262,6.27713721 88.8239217,7.59608763 88.7709809,9.24881656 L84.5878505,7.34878442 C84.6986187,5.9514405 85.3933637,3.96897397 87.1249321,2.38089947 C88.857315,0.793633158 91.1117748,0 93.8883113,0 C96.6640334,0 98.8655525,0.774236828 100.492054,2.3219023 C102.117741,3.87118414 102.931399,5.91749693 102.931399,8.46164884 C102.931399,10.3770364 102.415838,12.2010996 101.383901,13.932222 C100.828431,14.8244532 100.299838,15.6180863 99.7973089,16.3131215 C99.2955939,17.0089648 98.5943331,17.802598 97.69597,18.6948291 C96.795978,19.5870603 96.0825001,20.2820954 95.5539075,20.7807428 C95.0245004,21.2793901 94.2507516,21.9752334 93.2334755,22.8658482 C92.2153849,23.7580794 91.5206399,24.3755292 91.1508694,24.7157731 L103.723881,24.7157731 L103.723881,28.4552239 L84.4477612,28.4552239 Z" id="two" fill="#0ECC8D"></path>
                </g>
            </g>
        </g>
    </g>
</svg>