<?xml version="1.0" encoding="UTF-8"?>
<svg width="311px" height="123px" viewBox="0 0 311 123" version="1.1" xmlns="http://www.w3.org/2000/svg" xmlns:xlink="http://www.w3.org/1999/xlink">
    <!-- Generator: Sketch 44.1 (41455) - http://www.bohemiancoding.com/sketch -->
    <title>logotype</title>
    <desc>Created with Sketch.</desc>
    <defs></defs>
    <g id="Symbols" stroke="none" stroke-width="1" fill="none" fill-rule="evenodd">
        <g id="logotype">
            <g>
                <path d="M2.2544,90.1363 C1.0014,90.1363 0.0274,89.1613 0.0274,87.8393 L0.0274,35.7143 L4.5514,35.7143 L4.5514,87.8393 C4.5514,89.1613 3.5064,90.1363 2.2544,90.1363 Z" id="Fill-1" fill="#009ADD"></path>
                <path d="M57.0239,90.1363 C56.3279,90.1363 55.6319,89.8583 55.2149,89.2313 L20.5569,44.0783 L20.5569,87.8403 C20.5569,89.0933 19.5129,90.1363 18.2609,90.1363 C17.0079,90.1363 16.0339,89.0933 16.0339,87.8403 L16.0339,37.3993 C16.0339,36.7733 16.3119,36.0773 16.9379,35.6603 C17.9129,34.8953 19.3739,35.0343 20.0699,36.0773 L54.7969,81.2313 L54.7969,35.7293 L59.3209,35.7293 L59.3209,87.8403 C59.3209,89.0933 58.2769,90.1363 57.0239,90.1363" id="Fill-3" fill="#006097"></path>
                <path d="M65.9998,78.0963 L65.9998,47.1973 C65.9998,41.1423 73.2378,35.1573 85.2778,35.1573 C93.0018,35.1573 98.5698,36.6183 101.7708,38.2893 L101.7708,43.0913 C99.9618,42.3253 93.4898,39.6803 85.2778,39.6803 C76.5088,39.6803 72.2638,44.1353 70.5238,46.7093 L70.5238,78.5833 C72.2638,81.1583 76.5088,85.6133 85.2778,85.6133 C91.4018,85.6133 96.3428,84.2203 99.1958,83.1073 L99.1958,64.8733 L88.3398,64.8733 C87.0868,64.8733 86.0428,63.8993 86.0428,62.6463 C86.0428,61.3943 87.0868,60.3503 88.3398,60.3503 L103.7198,60.3503 L103.7198,86.0993 C100.4488,88.3963 93.0018,90.1363 85.2778,90.1363 C73.2378,90.1363 65.9998,84.1513 65.9998,78.0963 Z" id="Fill-5" fill="#006097"></path>
                <path d="M151.46,90.1363 C150.207,90.1363 149.233,89.1613 149.233,87.8393 L149.233,64.8733 L117.985,64.8733 L117.985,89.5793 L113.461,89.5793 L113.461,37.4533 C113.461,36.2013 114.506,35.1573 115.758,35.1573 C117.011,35.1573 117.985,36.2013 117.985,37.4533 L117.985,60.3503 L149.233,60.3503 L149.233,35.5743 L153.756,35.5743 L153.756,87.8393 C153.756,89.1613 152.712,90.1363 151.46,90.1363" id="Fill-7" fill="#009ADD"></path>
                <path d="M102.299993,105.048908 C102.514651,105.090898 102.736459,105.1129 102.9634,105.1129 C104.8624,105.1129 106.4014,103.5739 106.4014,101.6749 C106.4014,99.7769 104.8624,98.2369 102.9634,98.2369 C101.0654,98.2369 99.5264,99.7769 99.5264,101.6749 C99.5264,102.212932 99.649939,102.722065 99.8701803,103.175486 C89.3300278,113.871472 74.9198413,119.9424 59.8207,119.9424 C43.8936304,119.9424 28.7431507,113.17412 18.0807876,101.360202 C17.7897626,101.011254 17.3517212,100.7891 16.8615,100.7891 C15.9855,100.7891 15.2745,101.5001 15.2745,102.3761 C15.2745,102.761314 15.4119885,103.114429 15.6405368,103.389185 C15.6385918,103.389592 15.6366463,103.389997 15.6347,103.3904 C26.5217,114.9154 40.2127,122.9884 59.8207,122.9884 C75.8627283,122.9884 91.1672086,116.488319 102.299993,105.048908 Z" id="Combined-Shape" fill="#F98D29"></path>
                <path d="M16.8573221,18.4249682 C16.6425095,18.3829302 16.4205297,18.3609 16.1934,18.3609 C14.2944,18.3609 12.7554,19.9009 12.7554,21.7989 C12.7554,23.6979 14.2944,25.2369 16.1934,25.2369 C18.0924,25.2369 19.6314,23.6979 19.6314,21.7989 C19.6314,21.2609296 19.5077589,20.7517204 19.2873239,20.298188 C29.8273136,9.60252964 44.2364763,3.5318 59.3363,3.5318 C75.2627952,3.5318 90.4127565,10.298596 101.075059,22.1127134 C101.366079,22.4624579 101.804631,22.6852 102.2955,22.6852 C103.1715,22.6852 103.8825,21.9742 103.8825,21.0982 C103.8825,20.7131089 103.745099,20.359904 103.516683,20.0849695 C103.518555,20.084578 103.520427,20.0841882 103.5223,20.0838 C92.6353,8.5588 78.9443,0.4858 59.3363,0.4858 C43.2944229,0.4858 27.99008,6.98575868 16.8573221,18.4249682 Z" id="Combined-Shape" fill="#F98D29"></path>
                <g id="institute...." transform="translate(171.000000, 34.000000)" fill="#777779">
                    <polygon id="Fill-21" points="0.606 14.199 2.032 14.199 2.032 1.56 0.606 1.56"></polygon>
                    <path d="M4.7183,4.8643 L6.1093,4.8643 L6.1093,6.4893 C6.7223,5.4783 7.6973,4.6653 9.3043,4.6653 C11.5613,4.6653 12.8793,6.1823 12.8793,8.4033 L12.8793,14.1993 L11.4893,14.1993 L11.4893,8.7463 C11.4893,7.0133 10.5503,5.9293 8.9073,5.9293 C7.3003,5.9293 6.1093,7.1033 6.1093,8.8553 L6.1093,14.1993 L4.7183,14.1993 L4.7183,4.8643 Z" id="Fill-23"></path>
                    <path d="M14.2605,13.0074 L14.9645,12.0144 C15.9765,12.7734 17.0955,13.2064 18.1965,13.2064 C19.3165,13.2064 20.1295,12.6284 20.1295,11.7254 L20.1295,11.6894 C20.1295,10.7504 19.0275,10.3894 17.7995,10.0464 C16.3375,9.6314 14.7125,9.1254 14.7125,7.4104 L14.7125,7.3744 C14.7125,5.7674 16.0485,4.7014 17.8895,4.7014 C19.0275,4.7014 20.2915,5.0994 21.2485,5.7314 L20.6165,6.7784 C19.7495,6.2184 18.7565,5.8754 17.8535,5.8754 C16.7525,5.8754 16.0485,6.4534 16.0485,7.2294 L16.0485,7.2654 C16.0485,8.1504 17.2035,8.4934 18.4495,8.8724 C19.8945,9.3064 21.4465,9.8654 21.4465,11.5454 L21.4465,11.5814 C21.4465,13.3504 19.9845,14.3804 18.1245,14.3804 C16.7885,14.3804 15.3075,13.8564 14.2605,13.0074" id="Fill-24"></path>
                    <path d="M24.1004,11.7257 L24.1004,6.0927 L22.8004,6.0927 L22.8004,4.8647 L24.1004,4.8647 L24.1004,2.0477 L25.4914,2.0477 L25.4914,4.8647 L28.4524,4.8647 L28.4524,6.0927 L25.4914,6.0927 L25.4914,11.5447 C25.4914,12.6827 26.1224,13.0977 27.0614,13.0977 C27.5314,13.0977 27.9284,13.0077 28.4164,12.7727 L28.4164,13.9647 C27.9284,14.2177 27.4044,14.3617 26.7364,14.3617 C25.2384,14.3617 24.1004,13.6217 24.1004,11.7257" id="Fill-25"></path>
                    <path d="M30.185,2.824 L31.774,2.824 L31.774,1.289 L30.185,1.289 L30.185,2.824 Z M30.275,14.199 L31.665,14.199 L31.665,4.864 L30.275,4.864 L30.275,14.199 Z" id="Fill-26"></path>
                    <path d="M34.7163,11.7257 L34.7163,6.0927 L33.4163,6.0927 L33.4163,4.8647 L34.7163,4.8647 L34.7163,2.0477 L36.1063,2.0477 L36.1063,4.8647 L39.0673,4.8647 L39.0673,6.0927 L36.1063,6.0927 L36.1063,11.5447 C36.1063,12.6827 36.7383,13.0977 37.6773,13.0977 C38.1473,13.0977 38.5443,13.0077 39.0313,12.7727 L39.0313,13.9647 C38.5443,14.2177 38.0203,14.3617 37.3523,14.3617 C35.8533,14.3617 34.7163,13.6217 34.7163,11.7257" id="Fill-27"></path>
                    <path d="M40.7647,10.6602 L40.7647,4.8642 L42.1557,4.8642 L42.1557,10.3172 C42.1557,12.0512 43.0937,13.1342 44.7377,13.1342 C46.3257,13.1342 47.5357,11.9602 47.5357,10.2092 L47.5357,4.8642 L48.9077,4.8642 L48.9077,14.1992 L47.5357,14.1992 L47.5357,12.5742 C46.9037,13.5852 45.9467,14.3982 44.3397,14.3982 C42.0827,14.3982 40.7647,12.8812 40.7647,10.6602" id="Fill-28"></path>
                    <path d="M51.959,11.7257 L51.959,6.0927 L50.659,6.0927 L50.659,4.8647 L51.959,4.8647 L51.959,2.0477 L53.35,2.0477 L53.35,4.8647 L56.311,4.8647 L56.311,6.0927 L53.35,6.0927 L53.35,11.5447 C53.35,12.6827 53.981,13.0977 54.92,13.0977 C55.39,13.0977 55.787,13.0077 56.275,12.7727 L56.275,13.9647 C55.787,14.2177 55.263,14.3617 54.595,14.3617 C53.097,14.3617 51.959,13.6217 51.959,11.7257" id="Fill-29"></path>
                    <path d="M61.6167,13.2061 C62.8987,13.2061 63.8017,12.6831 64.5597,11.8881 L65.4267,12.6641 C64.4877,13.7121 63.3497,14.4161 61.5807,14.4161 C59.0167,14.4161 56.9217,12.4481 56.9217,9.5401 C56.9217,6.8321 58.8177,4.6651 61.3997,4.6651 C64.1627,4.6651 65.7517,6.8691 65.7517,9.6131 C65.7517,9.7391 65.7517,9.8841 65.7337,10.1011 L58.3307,10.1011 C58.5297,12.0691 59.9737,13.2061 61.6167,13.2061 L61.6167,13.2061 Z M64.3427,8.9811 C64.1807,7.2841 63.2057,5.8391 61.3637,5.8391 C59.7567,5.8391 58.5297,7.1751 58.3307,8.9811 L64.3427,8.9811 Z" id="Fill-30"></path>
                    <path d="M73.0449,6.0924 L71.7629,6.0924 L71.7629,4.8824 L73.0449,4.8824 L73.0449,4.0704 C73.0449,3.0044 73.3339,2.1924 73.8569,1.6684 C74.3269,1.1984 75.0129,0.9464 75.8619,0.9464 C76.5119,0.9464 76.9449,1.0184 77.3969,1.1814 L77.3969,2.3904 C76.8909,2.2464 76.5119,2.1554 76.0419,2.1554 C74.9589,2.1554 74.4169,2.8064 74.4169,4.1424 L74.4169,4.9004 L77.3779,4.9004 L77.3779,6.0924 L74.4349,6.0924 L74.4349,14.1994 L73.0449,14.1994 L73.0449,6.0924 Z" id="Fill-31"></path>
                    <path d="M77.5496,9.5772 L77.5496,9.5402 C77.5496,6.9052 79.6076,4.6652 82.4246,4.6652 C85.2236,4.6652 87.2816,6.8692 87.2816,9.5052 L87.2816,9.5402 C87.2816,12.1772 85.2056,14.4162 82.3886,14.4162 C79.5906,14.4162 77.5496,12.2132 77.5496,9.5772 M85.8556,9.5772 L85.8556,9.5402 C85.8556,7.5362 84.3566,5.8932 82.3886,5.8932 C80.3666,5.8932 78.9766,7.5362 78.9766,9.5052 L78.9766,9.5402 C78.9766,11.5452 80.4566,13.1702 82.4246,13.1702 C84.4466,13.1702 85.8556,11.5452 85.8556,9.5772" id="Fill-32"></path>
                    <path d="M89.0198,4.8643 L90.4108,4.8643 L90.4108,7.3023 C91.0968,5.7493 92.4508,4.6293 94.2198,4.7013 L94.2198,6.2003 L94.1118,6.2003 C92.0718,6.2003 90.4108,7.6633 90.4108,10.4803 L90.4108,14.1993 L89.0198,14.1993 L89.0198,4.8643 Z" id="Fill-33"></path>
                    <polygon id="Fill-34" points="0.4795 22.1729 1.8155 22.1729 9.7785 32.3019 9.7785 22.1729 11.1685 22.1729 11.1685 34.8129 10.0315 34.8129 1.8695 24.4479 1.8695 34.8129 0.4795 34.8129"></polygon>
                    <path d="M18.3362,33.8194 C19.6182,33.8194 20.5212,33.2954 21.2792,32.5014 L22.1462,33.2774 C21.2072,34.3244 20.0692,35.0284 18.3002,35.0284 C15.7362,35.0284 13.6412,33.0614 13.6412,30.1534 C13.6412,27.4454 15.5372,25.2784 18.1192,25.2784 C20.8822,25.2784 22.4712,27.4814 22.4712,30.2264 C22.4712,30.3524 22.4712,30.4974 22.4532,30.7134 L15.0502,30.7134 C15.2482,32.6814 16.6932,33.8194 18.3362,33.8194 L18.3362,33.8194 Z M21.0622,29.5934 C20.9002,27.8974 19.9252,26.4524 18.0832,26.4524 C16.4762,26.4524 15.2482,27.7884 15.0502,29.5934 L21.0622,29.5934 Z" id="Fill-35"></path>
                    <polygon id="Fill-36" points="26.8635 30.0636 23.3425 25.4776 24.9315 25.4776 27.6945 29.0886 30.4565 25.4776 32.0095 25.4776 28.4705 30.0276 32.1545 34.8126 30.5475 34.8126 27.6585 31.0026 24.7505 34.8126 23.1985 34.8126"></polygon>
                    <path d="M34.6792,32.3385 L34.6792,26.7055 L33.3792,26.7055 L33.3792,25.4775 L34.6792,25.4775 L34.6792,22.6605 L36.0692,22.6605 L36.0692,25.4775 L39.0302,25.4775 L39.0302,26.7055 L36.0692,26.7055 L36.0692,32.1585 C36.0692,33.2955 36.7012,33.7115 37.6402,33.7115 C38.1102,33.7115 38.5072,33.6205 38.9942,33.3855 L38.9942,34.5775 C38.5072,34.8305 37.9832,34.9745 37.3152,34.9745 C35.8162,34.9745 34.6792,34.2345 34.6792,32.3385" id="Fill-37"></path>
                    <path d="M46.2161,28.5289 L46.2161,28.4929 C46.2161,25.0259 48.7621,21.9569 52.5531,21.9569 C54.6841,21.9569 56.0021,22.5709 57.2661,23.6349 L56.3451,24.7189 C55.3701,23.8699 54.2871,23.2749 52.4991,23.2749 C49.7001,23.2749 47.6961,25.6399 47.6961,28.4569 L47.6961,28.4929 C47.6961,31.5079 49.6291,33.7469 52.6981,33.7469 C54.1431,33.7469 55.4781,33.1879 56.3451,32.4829 L56.3451,29.3409 L52.4991,29.3409 L52.4991,28.0589 L57.7181,28.0589 L57.7181,33.0969 C56.5441,34.1439 54.7741,35.0289 52.6441,35.0289 C48.6721,35.0289 46.2161,32.1399 46.2161,28.5289" id="Fill-38"></path>
                    <path d="M64.5711,33.8194 C65.8531,33.8194 66.7561,33.2954 67.5141,32.5014 L68.3811,33.2774 C67.4421,34.3244 66.3041,35.0284 64.5351,35.0284 C61.9711,35.0284 59.8761,33.0614 59.8761,30.1534 C59.8761,27.4454 61.7721,25.2784 64.3541,25.2784 C67.1171,25.2784 68.7061,27.4814 68.7061,30.2264 C68.7061,30.3524 68.7061,30.4974 68.6881,30.7134 L61.2851,30.7134 C61.4841,32.6814 62.9281,33.8194 64.5711,33.8194 L64.5711,33.8194 Z M67.2971,29.5934 C67.1351,27.8974 66.1601,26.4524 64.3181,26.4524 C62.7111,26.4524 61.4841,27.7884 61.2851,29.5934 L67.2971,29.5934 Z" id="Fill-39"></path>
                    <path d="M70.7944,25.4771 L72.1844,25.4771 L72.1844,27.1021 C72.7984,26.0911 73.7734,25.2791 75.3804,25.2791 C77.6374,25.2791 78.9554,26.7951 78.9554,29.0161 L78.9554,34.8121 L77.5654,34.8121 L77.5654,29.3591 C77.5654,27.6261 76.6264,26.5421 74.9834,26.5421 C73.3764,26.5421 72.1844,27.7161 72.1844,29.4681 L72.1844,34.8121 L70.7944,34.8121 L70.7944,25.4771 Z" id="Fill-40"></path>
                    <path d="M85.6812,33.8194 C86.9632,33.8194 87.8662,33.2954 88.6242,32.5014 L89.4912,33.2774 C88.5522,34.3244 87.4142,35.0284 85.6452,35.0284 C83.0812,35.0284 80.9862,33.0614 80.9862,30.1534 C80.9862,27.4454 82.8822,25.2784 85.4642,25.2784 C88.2272,25.2784 89.8162,27.4814 89.8162,30.2264 C89.8162,30.3524 89.8162,30.4974 89.7982,30.7134 L82.3952,30.7134 C82.5942,32.6814 84.0382,33.8194 85.6812,33.8194 L85.6812,33.8194 Z M88.4082,29.5934 C88.2452,27.8974 87.2702,26.4524 85.4282,26.4524 C83.8212,26.4524 82.5942,27.7884 82.3952,29.5934 L88.4082,29.5934 Z" id="Fill-41"></path>
                    <path d="M91.9041,25.4771 L93.2951,25.4771 L93.2951,27.9151 C93.9811,26.3621 95.3351,25.2431 97.1041,25.3141 L97.1041,26.8131 L96.9961,26.8131 C94.9561,26.8131 93.2951,28.2761 93.2951,31.0931 L93.2951,34.8121 L91.9041,34.8121 L91.9041,25.4771 Z" id="Fill-42"></path>
                    <path d="M97.9402,32.1041 L97.9402,32.0681 C97.9402,30.0631 99.5652,29.0161 101.9302,29.0161 C103.1222,29.0161 103.9522,29.1791 104.7832,29.4141 L104.7832,29.1251 C104.7832,27.4631 103.7722,26.5971 102.0212,26.5971 C100.9192,26.5971 100.0532,26.8681 99.1862,27.2651 L98.7712,26.1271 C99.8002,25.6581 100.7932,25.3331 102.1652,25.3331 C103.4832,25.3331 104.5132,25.6941 105.1802,26.3621 C105.8312,27.0121 106.1552,27.9151 106.1552,29.1061 L106.1552,34.8121 L104.7832,34.8121 L104.7832,33.4221 C104.1332,34.2521 103.0682,35.0111 101.4252,35.0111 C99.6732,35.0111 97.9402,34.0181 97.9402,32.1041 M104.8012,31.3811 L104.8012,30.5151 C104.1152,30.3161 103.2122,30.1181 102.0752,30.1181 C100.3412,30.1181 99.3482,30.8761 99.3482,31.9961 L99.3482,32.0321 C99.3482,33.2051 100.4312,33.8921 101.6952,33.8921 C103.4112,33.8921 104.8012,32.8621 104.8012,31.3811" id="Fill-43"></path>
                    <path d="M108.981,32.3385 L108.981,26.7055 L107.681,26.7055 L107.681,25.4775 L108.981,25.4775 L108.981,22.6605 L110.371,22.6605 L110.371,25.4775 L113.332,25.4775 L113.332,26.7055 L110.371,26.7055 L110.371,32.1585 C110.371,33.2955 111.003,33.7115 111.942,33.7115 C112.412,33.7115 112.809,33.6205 113.296,33.3855 L113.296,34.5775 C112.809,34.8305 112.285,34.9745 111.617,34.9745 C110.118,34.9745 108.981,34.2345 108.981,32.3385" id="Fill-44"></path>
                    <path d="M115.426,23.438 L117.015,23.438 L117.015,21.903 L115.426,21.903 L115.426,23.438 Z M115.516,34.812 L116.907,34.812 L116.907,25.477 L115.516,25.477 L115.516,34.812 Z" id="Fill-45"></path>
                    <path d="M119.0313,30.19 L119.0313,30.154 C119.0313,27.518 121.0903,25.279 123.9063,25.279 C126.7053,25.279 128.7633,27.482 128.7633,30.118 L128.7633,30.154 C128.7633,32.79 126.6873,35.029 123.8703,35.029 C121.0723,35.029 119.0313,32.826 119.0313,30.19 M127.3373,30.19 L127.3373,30.154 C127.3373,28.149 125.8383,26.506 123.8703,26.506 C121.8483,26.506 120.4583,28.149 120.4583,30.118 L120.4583,30.154 C120.4583,32.158 121.9383,33.783 123.9063,33.783 C125.9293,33.783 127.3373,32.158 127.3373,30.19" id="Fill-46"></path>
                    <path d="M130.8631,25.4771 L132.2541,25.4771 L132.2541,27.1021 C132.8671,26.0911 133.8421,25.2791 135.4491,25.2791 C137.7071,25.2791 139.0251,26.7951 139.0251,29.0161 L139.0251,34.8121 L137.6341,34.8121 L137.6341,29.3591 C137.6341,27.6261 136.6951,26.5421 135.0521,26.5421 C133.4451,26.5421 132.2541,27.7161 132.2541,29.4681 L132.2541,34.8121 L130.8631,34.8121 L130.8631,25.4771 Z" id="Fill-47"></path>
                    <polygon id="Fill-48" points="0.4795 42.7862 1.9065 42.7862 1.9065 48.4012 9.2005 48.4012 9.2005 42.7862 10.6265 42.7862 10.6265 55.4252 9.2005 55.4252 9.2005 49.7372 1.9065 49.7372 1.9065 55.4252 0.4795 55.4252"></polygon>
                    <path d="M17.4331,54.4322 C18.7151,54.4322 19.6181,53.9082 20.3761,53.1142 L21.2431,53.8902 C20.3041,54.9372 19.1661,55.6412 17.3971,55.6412 C14.8331,55.6412 12.7381,53.6742 12.7381,50.7662 C12.7381,48.0582 14.6341,45.8912 17.2161,45.8912 C19.9791,45.8912 21.5681,48.0952 21.5681,50.8392 C21.5681,50.9652 21.5681,51.1102 21.5501,51.3272 L14.1471,51.3272 C14.3461,53.2942 15.7901,54.4322 17.4331,54.4322 L17.4331,54.4322 Z M20.1601,50.2072 C19.9971,48.5102 19.0221,47.0652 17.1801,47.0652 C15.5731,47.0652 14.3461,48.4012 14.1471,50.2072 L20.1601,50.2072 Z" id="Fill-49"></path>
                    <path d="M22.9038,52.7169 L22.9038,52.6809 C22.9038,50.6759 24.5288,49.6299 26.8938,49.6299 C28.0858,49.6299 28.9158,49.7919 29.7468,50.0269 L29.7468,49.7379 C29.7468,48.0759 28.7358,47.2099 26.9848,47.2099 C25.8828,47.2099 25.0168,47.4809 24.1498,47.8779 L23.7348,46.7399 C24.7638,46.2709 25.7568,45.9459 27.1288,45.9459 C28.4468,45.9459 29.4768,46.3069 30.1438,46.9749 C30.7948,47.6249 31.1188,48.5279 31.1188,49.7199 L31.1188,55.4249 L29.7468,55.4249 L29.7468,54.0349 C29.0968,54.8659 28.0318,55.6239 26.3888,55.6239 C24.6368,55.6239 22.9038,54.6309 22.9038,52.7169 M29.7648,51.9949 L29.7648,51.1279 C29.0788,50.9289 28.1758,50.7309 27.0388,50.7309 C25.3048,50.7309 24.3118,51.4889 24.3118,52.6089 L24.3118,52.6449 C24.3118,53.8189 25.3948,54.5049 26.6598,54.5049 C28.3748,54.5049 29.7648,53.4749 29.7648,51.9949" id="Fill-50"></path>
                    <polygon id="Fill-51" points="33.403 55.426 34.793 55.426 34.793 42.245 33.403 42.245"></polygon>
                    <path d="M37.9165,52.9517 L37.9165,47.3177 L36.6165,47.3177 L36.6165,46.0907 L37.9165,46.0907 L37.9165,43.2737 L39.3065,43.2737 L39.3065,46.0907 L42.2675,46.0907 L42.2675,47.3177 L39.3065,47.3177 L39.3065,52.7707 C39.3065,53.9087 39.9385,54.3237 40.8775,54.3237 C41.3475,54.3237 41.7445,54.2337 42.2315,53.9987 L42.2315,55.1907 C41.7445,55.4437 41.2205,55.5877 40.5525,55.5877 C39.0545,55.5877 37.9165,54.8477 37.9165,52.9517" id="Fill-52"></path>
                    <path d="M44.0369,42.2447 L45.4269,42.2447 L45.4269,47.7157 C46.0409,46.7037 47.0159,45.8917 48.6229,45.8917 C50.8799,45.8917 52.1979,47.4087 52.1979,49.6297 L52.1979,55.4257 L50.8079,55.4257 L50.8079,49.9727 C50.8079,48.2387 49.8689,47.1557 48.2259,47.1557 C46.6189,47.1557 45.4269,48.3287 45.4269,50.0807 L45.4269,55.4257 L44.0369,55.4257 L44.0369,42.2447 Z" id="Fill-53"></path>
                    <path d="M53.8313,50.8028 L53.8313,50.7668 C53.8313,48.1308 55.8903,45.8918 58.6163,45.8918 C60.3863,45.8918 61.4873,46.6318 62.3543,47.5528 L61.4333,48.5278 C60.6933,47.7518 59.8623,47.1198 58.5983,47.1198 C56.7023,47.1198 55.2583,48.7268 55.2583,50.7308 L55.2583,50.7668 C55.2583,52.7888 56.7383,54.3958 58.6883,54.3958 C59.8803,54.3958 60.8013,53.8008 61.5413,53.0058 L62.4263,53.8368 C61.4873,54.8838 60.3683,55.6418 58.6163,55.6418 C55.8903,55.6418 53.8313,53.4208 53.8313,50.8028" id="Fill-54"></path>
                    <path d="M63.3757,52.7169 L63.3757,52.6809 C63.3757,50.6759 65.0007,49.6299 67.3657,49.6299 C68.5577,49.6299 69.3877,49.7919 70.2187,50.0269 L70.2187,49.7379 C70.2187,48.0759 69.2077,47.2099 67.4557,47.2099 C66.3547,47.2099 65.4887,47.4809 64.6217,47.8779 L64.2057,46.7399 C65.2347,46.2709 66.2287,45.9459 67.6007,45.9459 C68.9187,45.9459 69.9477,46.3069 70.6157,46.9749 C71.2657,47.6249 71.5907,48.5279 71.5907,49.7199 L71.5907,55.4249 L70.2187,55.4249 L70.2187,54.0349 C69.5687,54.8659 68.5037,55.6239 66.8597,55.6239 C65.1087,55.6239 63.3757,54.6309 63.3757,52.7169 M70.2367,51.9949 L70.2367,51.1279 C69.5507,50.9289 68.6477,50.7309 67.5107,50.7309 C65.7767,50.7309 64.7837,51.4889 64.7837,52.6089 L64.7837,52.6449 C64.7837,53.8189 65.8667,54.5049 67.1307,54.5049 C68.8467,54.5049 70.2367,53.4749 70.2367,51.9949" id="Fill-55"></path>
                    <path d="M74.1726,46.0904 L75.5626,46.0904 L75.5626,48.5284 C76.2496,46.9754 77.6036,45.8554 79.3726,45.9274 L79.3726,47.4264 L79.2646,47.4264 C77.2246,47.4264 75.5626,48.8894 75.5626,51.7054 L75.5626,55.4254 L74.1726,55.4254 L74.1726,46.0904 Z" id="Fill-56"></path>
                    <path d="M84.5344,54.4322 C85.8164,54.4322 86.7194,53.9082 87.4774,53.1142 L88.3444,53.8902 C87.4054,54.9372 86.2674,55.6412 84.4984,55.6412 C81.9344,55.6412 79.8394,53.6742 79.8394,50.7662 C79.8394,48.0582 81.7354,45.8912 84.3174,45.8912 C87.0804,45.8912 88.6694,48.0952 88.6694,50.8392 C88.6694,50.9652 88.6694,51.1102 88.6514,51.3272 L81.2484,51.3272 C81.4474,53.2942 82.8914,54.4322 84.5344,54.4322 L84.5344,54.4322 Z M87.2614,50.2072 C87.0984,48.5102 86.1234,47.0652 84.2814,47.0652 C82.6744,47.0652 81.4474,48.4012 81.2484,50.2072 L87.2614,50.2072 Z" id="Fill-57"></path>
                </g>
            </g>
        </g>
    </g>
</svg>